<svg width="1200" height="569" viewBox="0 0 1200 569" fill="none" xmlns="http://www.w3.org/2000/svg">
<path d="M-61.245 564.839C-39.2202 503.813 26.6405 461.811 91.2182 467.476C137.192 471.537 181.242 496.973 227.002 490.668C282.706 483.079 319.485 433.81 356.906 397.152C403.842 351.196 449.71 331.958 515.464 351.623C564.218 366.158 604.418 399.61 656.914 399.717C753.46 399.931 800.717 298.934 831.616 222.732C862.729 145.996 893.521 64.7707 972.318 25.4407C1036.9 -6.83559 1101.37 -3.41559 1168.51 17.1044C1200.8 26.9369 1232.45 33.5632 1259.18 56.5413" stroke="url(#paint0_radial_201_56)" stroke-miterlimit="10"/>
<path d="M1262.17 60.175C1234.8 37.5175 1202.62 30.5706 1169.9 20.7381C1145.84 13.4706 1122.11 8.4475 1098.59 6.31C1055.5 2.35563 1013.05 8.55438 970.822 29.7156C957.778 36.3419 945.91 44.0369 935.218 52.6938C880.798 96.94 855.565 165.447 828.729 230.213C796.761 307.484 746.297 407.305 648.789 406.129C596.186 405.595 555.771 372.571 507.231 357.394C463.93 344.035 429.182 347.028 396.893 363.059C380.535 371.181 364.925 382.724 348.994 397.045C311.146 431.245 273.618 477.522 218.021 484.469C204.229 486.179 190.651 485.217 177.072 482.972C145.425 477.629 114.205 465.231 82.1302 463.201C17.6595 458.926 -47.4528 501.569 -69.1569 562.808" stroke="url(#paint1_radial_201_56)" stroke-miterlimit="10"/>
<path d="M1264.95 63.7019C1236.94 41.365 1204.33 34.0975 1171.08 24.265C1146.7 16.9975 1122.54 11.8675 1098.69 9.83692C1054.97 5.98942 1011.66 12.295 969.218 33.7769C955.96 40.51 944.092 48.3119 933.294 57.2894C878.339 102.498 853.534 172.18 825.95 237.694C792.912 316.141 739.133 414.573 640.663 412.435C588.167 411.473 547.432 378.769 498.998 363.166C456.125 349.486 421.377 351.303 389.088 365.838C372.73 373.105 357.013 383.793 340.976 397.045C302.806 428.787 264.53 472.071 208.933 478.484C195.141 480.087 181.456 479.125 167.877 476.881C136.123 471.858 104.797 460.315 72.8285 458.926C8.46469 456.254 -55.8991 499.431 -77.2825 560.884" stroke="url(#paint2_radial_201_56)" stroke-miterlimit="10"/>
<path d="M1267.73 67.2288C1239.08 45.2125 1206.04 37.7313 1172.25 27.7919C1147.55 20.5244 1123.07 15.3944 1098.8 13.3638C1054.43 9.51628 1010.38 16.0357 967.507 37.945C954.143 44.785 942.061 52.8007 931.155 61.885C875.666 108.055 851.289 179.02 822.956 245.069C788.742 324.691 731.863 421.519 632.43 418.741C579.934 417.351 538.985 384.968 490.659 368.83C448.213 354.723 413.572 355.684 381.283 368.616C364.925 375.136 349.101 384.861 333.064 397.045C294.467 426.329 255.549 466.514 199.845 472.392C186.053 473.781 172.368 472.819 158.683 470.789C126.821 465.979 95.3879 455.399 63.5267 454.758C-0.516342 453.475 -64.1318 497.294 -85.3013 558.961" stroke="url(#paint3_radial_201_56)" stroke-miterlimit="10"/>
<path d="M1270.51 70.6488C1241.21 48.9532 1207.64 41.1513 1173.54 31.2119C1148.52 23.9444 1123.71 18.8144 1099.01 16.7838C1054 13.0432 1009.2 19.7763 966.01 41.8994C952.539 48.8463 940.243 56.9688 929.231 66.2669C873.1 113.292 849.257 185.539 820.176 252.336C784.893 333.027 724.806 428.466 624.411 424.939C571.915 423.016 530.646 391.06 482.533 374.494C440.408 359.959 405.874 359.959 373.585 371.288C357.227 377.059 341.403 385.823 325.152 396.938C286.127 423.657 246.568 460.956 190.864 466.193C177.072 467.476 163.28 466.514 149.595 464.59C117.627 460.101 86.0861 450.376 54.3319 450.483C-9.49739 450.589 -72.4713 495.049 -93.2131 556.93" stroke="url(#paint4_radial_201_56)" stroke-miterlimit="10"/>
<path d="M1273.4 74.1756C1243.46 52.8006 1209.46 44.6781 1174.82 34.8456C1149.48 27.5781 1124.25 22.4481 1099.23 20.4175C1053.58 16.6769 1007.92 23.6238 964.407 46.0675C950.721 53.1213 938.426 61.4575 927.2 70.9694C870.534 118.956 847.119 192.379 817.289 259.817C780.831 341.684 717.643 435.734 616.179 431.245C563.683 429.001 522.199 397.366 474.194 380.266C432.496 365.41 398.069 364.341 365.673 374.067C349.208 378.983 333.384 386.892 317.026 396.938C277.681 421.199 237.373 455.506 181.67 460.101C167.877 461.277 154.085 460.315 140.4 458.498C108.325 454.223 76.7844 445.352 44.9232 446.207C-18.7991 447.811 -80.9177 492.912 -101.446 555.006" stroke="url(#paint5_radial_201_56)" stroke-miterlimit="10"/>
<path d="M1276.18 77.7025C1245.6 56.6481 1211.17 48.3119 1175.99 38.3725C1150.33 31.105 1124.78 25.975 1099.34 23.9444C1053.04 20.3106 1006.64 27.3644 962.696 50.1288C948.904 57.2894 936.394 65.7325 925.061 75.4581C867.754 124.407 844.874 199.112 814.189 267.085C776.661 350.127 710.159 442.787 607.84 437.444C555.343 434.772 513.646 403.457 465.747 385.823C424.477 370.647 390.05 368.509 357.761 376.632C341.296 380.8 325.366 387.747 308.901 396.724C269.021 418.527 228.178 449.841 172.475 453.902C158.576 454.864 144.89 453.902 131.098 452.192C98.9162 448.238 67.2689 440.222 35.5146 441.826C-27.9939 444.925 -89.364 490.561 -109.571 552.869" stroke="url(#paint6_radial_201_56)" stroke-miterlimit="10"/>
<path d="M1278.96 81.2294C1247.74 60.4956 1212.77 51.8388 1177.28 41.8994C1151.3 34.6319 1125.42 29.5019 1099.55 27.4713C1052.61 23.8375 1005.46 31.105 961.199 54.2969C947.3 61.5644 934.577 70.2213 923.137 80.0538C865.295 129.964 842.842 205.846 811.409 274.566C772.705 358.677 703.102 449.948 599.714 443.856C547.325 440.757 505.306 409.87 457.515 391.701C416.566 376.204 382.352 372.998 349.956 379.518C333.491 382.831 317.454 388.923 300.882 396.831C260.574 416.176 219.091 444.391 163.387 447.918C149.488 448.773 135.695 447.811 121.903 446.208C89.6144 442.467 57.8601 435.413 26.2128 437.764C-37.0819 442.253 -97.8105 488.53 -117.697 551.052" stroke="url(#paint7_radial_201_56)" stroke-miterlimit="10"/>
<path d="M1281.74 84.6494C1249.87 64.3431 1214.48 55.2588 1178.45 45.3194C1152.15 38.0519 1125.85 32.9219 1099.66 30.8913C1051.97 27.3644 1004.07 34.8456 959.488 58.2513C945.375 65.6256 932.652 74.3894 920.998 84.5425C862.515 135.308 840.597 212.472 808.415 281.834C768.642 367.12 695.832 457.002 591.481 449.948C539.092 446.421 496.86 415.855 449.175 397.259C408.654 381.334 374.44 377.166 342.152 382.083C325.579 384.648 309.542 389.778 292.97 396.618C252.235 413.397 210.109 438.726 154.406 441.612C140.507 442.36 126.714 441.398 112.815 439.902C80.4195 436.482 48.5584 430.283 17.018 433.276C-46.0629 439.261 -106.043 486.072 -125.609 548.914" stroke="url(#paint8_radial_201_56)" stroke-miterlimit="10"/>
<path d="M1284.51 88.1763C1252.01 68.1907 1216.2 58.8925 1179.63 48.8463C1153.01 41.5788 1126.39 36.4488 1099.76 34.525C1051.44 30.9982 1002.79 38.6932 957.778 62.4194C943.558 69.9007 930.621 78.8782 918.967 89.1382C859.949 140.866 838.459 219.205 805.528 289.315C764.579 375.777 688.669 464.269 583.356 456.361C530.966 452.406 488.414 422.268 440.943 403.03C400.849 386.785 366.636 381.441 334.347 384.861C317.775 386.571 301.63 390.846 284.951 396.618C243.681 410.939 201.022 433.276 145.318 435.627C131.419 436.161 117.52 435.306 103.621 433.917C71.1179 430.711 39.1498 425.474 7.71627 429.214C-55.2577 436.696 -114.383 484.148 -133.628 547.098" stroke="url(#paint9_radial_201_56)" stroke-miterlimit="10"/>
<path d="M1287.4 91.7032C1254.26 72.0382 1217.91 62.4194 1180.91 52.4801C1153.97 45.2125 1127.03 39.9757 1100.08 38.1588C1051.12 34.7388 1001.72 42.5407 956.388 66.6944C942.061 74.2826 928.91 83.3669 917.149 93.8407C857.49 146.53 836.534 226.152 802.856 296.796C760.837 384.327 681.719 471.537 575.337 462.773C522.948 458.391 480.181 428.573 432.817 408.908C393.044 392.343 359.044 385.93 326.756 387.747C310.184 388.709 293.932 392.022 277.146 396.724C235.449 408.481 192.147 427.932 136.444 429.642C122.545 430.069 108.646 429.108 94.7464 427.825C62.1368 424.939 30.1688 420.451 -1.26474 425.046C-64.0248 433.917 -122.508 482.011 -141.432 545.174" stroke="url(#paint10_radial_201_56)" stroke-miterlimit="10"/>
<path d="M1290.18 95.2301C1256.4 75.8857 1219.62 65.9463 1182.2 56.0069C1154.83 48.7394 1127.56 43.5025 1100.3 41.6857C1050.69 38.2657 1000.44 46.3882 954.784 70.7557C940.243 78.5575 927.093 87.7488 915.118 98.4363C854.924 152.088 834.396 232.885 799.969 304.278C756.668 392.77 674.342 478.698 566.997 468.972C514.608 464.269 471.628 434.772 424.371 414.466C385.025 397.579 351.026 390.098 318.737 390.312C302.058 390.419 285.807 392.877 268.914 396.511C226.682 405.702 182.846 422.161 127.142 423.336C113.243 423.55 99.237 422.695 85.3378 421.519C52.6213 418.848 20.5463 415.321 -10.7803 420.558C-73.3265 430.924 -131.062 479.553 -149.665 543.036" stroke="url(#paint11_radial_201_56)" stroke-miterlimit="10"/>
<path d="M1292.96 98.65C1258.53 79.6263 1221.33 69.4732 1183.37 59.4269C1155.68 52.1594 1128.1 46.9225 1100.4 45.1056C1050.15 41.7925 999.154 50.0219 953.073 74.71C938.426 82.6188 925.061 91.9169 912.98 102.818C852.251 157.324 832.151 239.404 796.868 311.438C752.605 401.213 667.071 485.858 558.765 475.171C506.483 470.041 463.181 440.971 416.031 420.13C377.113 402.923 343.221 394.373 310.825 392.984C294.146 392.236 277.681 393.732 260.788 396.404C218.021 403.03 173.651 416.603 117.947 417.138C104.048 417.244 90.042 416.389 76.0359 415.321C43.2125 412.969 11.0306 410.298 -20.1891 416.283C-82.5215 428.146 -139.508 477.415 -157.898 541.006" stroke="url(#paint12_radial_201_56)" stroke-miterlimit="10"/>
<path d="M1295.74 102.177C1260.67 83.4738 1222.93 73 1184.55 62.9538C1156.54 55.6863 1128.63 50.4494 1100.51 48.6325C1049.62 45.3194 997.871 53.7625 951.47 78.8782C936.715 86.8938 923.137 96.4057 910.948 107.414C849.578 162.882 830.012 246.244 793.981 318.919C748.649 409.87 659.908 493.126 550.639 481.583C498.357 476.026 454.735 447.383 407.798 426.008C369.201 408.481 335.416 398.862 303.127 395.869C286.448 394.373 269.876 394.908 252.983 396.511C209.682 400.572 164.777 411.259 109.073 411.259C95.0671 411.259 81.1679 410.298 67.0549 409.443C34.1246 407.305 1.83577 405.595 -29.277 412.328C-91.5025 425.581 -147.741 475.491 -165.703 539.296" stroke="url(#paint13_radial_201_56)" stroke-miterlimit="10"/>
<path d="M1298.52 105.704C1262.81 87.3213 1224.64 76.5269 1185.72 66.4807C1157.39 59.1063 1129.06 53.9763 1100.62 52.1594C1049.08 48.8463 996.482 57.5032 949.759 82.9394C934.898 91.0619 921.105 100.681 908.81 111.903C846.905 168.333 827.767 252.871 790.988 326.187C744.479 418.313 652.638 500.179 542.406 487.782C490.124 481.904 446.288 453.475 399.459 431.566C361.29 413.718 327.504 402.923 295.215 398.434C278.536 396.083 261.857 395.656 244.857 396.297C201.022 397.793 155.582 405.595 99.8784 404.954C85.8723 404.74 71.8662 403.885 57.7532 403.03C24.716 401.106 -7.67976 400.358 -38.6856 407.733C-100.697 422.481 -156.187 472.926 -173.935 537.051" stroke="url(#paint14_radial_201_56)" stroke-miterlimit="10"/>
<path d="M1301.41 109.231C1265.06 91.2757 1226.35 80.1607 1187.11 70.1144C1158.46 62.74 1129.81 57.61 1100.94 55.7932C1048.76 52.5869 995.412 61.4575 948.262 87.1075C933.187 95.3369 919.395 105.169 906.885 116.605C844.339 173.997 825.736 259.711 788.208 333.668C740.63 426.863 645.581 507.447 534.388 494.088C482.105 487.782 438.056 459.781 391.333 437.337C353.485 419.168 319.913 407.305 287.624 401.213C270.838 398.114 254.159 396.724 237.052 396.297C192.682 395.121 146.708 400.144 90.8974 398.862C76.8913 398.541 62.8852 397.686 48.7722 396.938C15.628 395.335 -16.7677 395.335 -47.7735 403.564C-109.571 419.809 -164.313 470.789 -181.74 535.128" stroke="url(#paint15_radial_201_56)" stroke-miterlimit="10"/>
<path d="M1304.19 112.758C1267.19 95.1232 1228.06 83.6876 1188.29 73.6413C1159.32 66.2669 1130.34 61.1369 1101.05 59.32C1048.23 56.1138 994.129 65.1982 946.658 91.1688C931.476 99.505 917.47 109.444 904.961 121.094C841.88 179.341 823.704 266.444 785.428 341.043C736.674 435.413 638.418 514.714 526.262 500.393C473.98 493.767 429.716 466.086 383.101 443.001C345.68 424.512 312.108 411.58 279.819 403.885C263.033 399.931 246.247 397.579 229.034 396.19C184.129 392.343 137.62 394.48 81.8095 392.663C67.8034 392.236 53.6904 391.274 39.5774 390.739C6.32635 389.35 -26.1763 390.312 -57.0752 399.289C-118.766 416.924 -172.759 468.651 -189.866 533.097" stroke="url(#paint16_radial_201_56)" stroke-miterlimit="10"/>
<path d="M1306.97 116.178C1269.33 98.8638 1229.77 87.1075 1189.47 77.0613C1160.17 69.6869 1130.77 64.5569 1101.15 62.74C1047.69 59.6406 992.739 68.8319 944.948 95.23C929.659 103.673 915.439 113.826 902.822 125.583C839.1 184.791 821.459 273.07 782.327 348.31C732.504 443.856 631.04 521.875 517.816 506.592C465.64 499.538 420.949 472.285 374.547 448.666C337.447 429.856 303.982 415.748 271.693 406.557C254.908 401.748 237.908 398.541 220.801 396.083C175.468 389.564 128.318 388.923 72.5077 386.571C58.5016 385.93 44.3886 385.075 30.1687 384.648C-3.18931 383.579 -35.7989 385.396 -66.5909 395.014C-128.068 414.145 -181.312 466.407 -198.098 531.173" stroke="url(#paint17_radial_201_56)" stroke-miterlimit="10"/>
<path d="M1309.75 119.704C1271.47 102.711 1231.38 90.7413 1190.64 80.5881C1161.03 73.2138 1131.3 67.9769 1101.37 66.3738C1047.27 63.2744 991.563 72.7863 943.451 99.3981C927.948 107.948 913.728 118.208 900.898 130.285C836.641 190.456 819.428 279.91 779.548 355.898C728.548 452.513 623.984 529.249 509.797 513.004C457.622 505.63 412.717 478.698 366.422 454.544C329.749 435.413 296.391 420.237 264.102 409.443C247.21 403.885 230.21 399.61 212.996 396.19C167.129 386.999 119.444 383.579 63.6337 380.586C49.6276 379.838 35.4077 378.983 21.1878 378.663C-12.2771 377.808 -44.9936 380.586 -75.6787 390.953C-136.942 411.58 -189.438 464.376 -206.01 529.356" stroke="url(#paint18_radial_201_56)" stroke-miterlimit="10"/>
<path d="M1312.63 123.231C1273.72 106.559 1233.2 94.2681 1192.03 84.115C1162.1 76.7406 1132.05 71.5038 1101.69 69.9006C1046.84 66.9081 990.387 76.5269 941.954 103.459C926.344 112.116 911.91 122.59 898.974 134.774C834.075 195.906 817.396 286.643 776.768 363.166C724.592 460.956 616.714 536.41 501.671 519.203C449.496 511.401 404.27 484.896 358.189 460.101C321.944 440.65 288.586 424.298 256.297 412.008C239.405 405.595 222.298 400.358 204.977 395.976C158.576 384.113 110.356 377.914 54.5457 374.281C40.4327 373.319 26.3197 372.571 11.9929 372.25C-21.5789 371.716 -54.4023 375.349 -84.9805 386.464C-146.03 408.587 -197.778 462.025 -214.029 527.219" stroke="url(#paint19_radial_201_56)" stroke-miterlimit="10"/>
<path d="M1315.41 126.758C1275.85 110.406 1234.91 97.795 1193.21 87.6419C1162.95 80.2675 1132.48 75.0306 1101.79 73.4275C1046.3 70.435 989.104 80.2675 940.243 107.628C924.527 116.391 909.879 126.972 896.835 139.369C831.402 201.357 815.151 293.376 773.774 370.647C720.53 469.613 609.55 543.784 493.439 525.616C441.263 517.493 395.824 491.202 349.956 465.979C314.032 446.208 280.888 428.787 248.599 415C231.707 407.733 214.493 401.534 197.066 396.19C150.236 381.548 101.375 372.571 45.5647 368.509C31.4517 367.441 17.3387 366.586 3.01188 366.479C-30.6669 366.158 -63.4903 370.647 -94.0685 382.51C-155.011 406.023 -206.01 460.101 -221.941 525.509" stroke="url(#paint20_radial_201_56)" stroke-miterlimit="10"/>
<path d="M1318.19 130.178C1277.99 114.147 1236.51 101.322 1194.38 91.1688C1163.81 83.7944 1133.01 78.5575 1101.9 76.9544C1045.77 74.0688 987.821 84.0082 938.64 111.689C922.709 120.666 908.061 131.354 894.804 143.965C828.836 206.914 813.013 300.109 770.887 378.021C716.574 478.056 602.28 550.945 485.313 531.814C433.138 523.264 387.484 497.401 341.724 471.644C306.228 451.551 273.083 433.062 240.795 417.672C223.902 409.656 206.581 402.389 189.047 395.976C141.79 378.663 92.2873 366.906 36.4768 362.204C22.3638 361.028 8.14392 360.173 -6.18291 360.173C-39.9686 360.173 -72.8989 365.517 -103.37 378.128C-164.206 403.03 -214.457 457.643 -230.066 523.264" stroke="url(#paint21_radial_201_56)" stroke-miterlimit="10"/>
<path d="M1320.97 133.705C1280.13 118.101 1238.22 104.849 1195.67 94.6956C1164.77 87.3213 1133.66 82.0844 1102.12 80.4813C1045.34 77.5956 986.538 87.8556 937.036 115.75C920.998 124.834 906.137 135.629 892.772 148.454C826.163 212.365 810.874 306.843 767.894 385.396C712.511 486.606 595.116 558.213 477.08 538.12C425.012 529.249 378.931 503.706 333.384 477.308C298.209 456.895 265.278 437.23 232.883 420.344C215.883 411.473 198.562 403.351 181.028 395.869C133.343 375.777 83.1994 361.349 27.3889 356.005C13.2759 354.616 -0.944053 353.868 -15.3778 353.974C-49.2704 354.188 -82.3076 360.494 -112.672 373.853C-173.187 400.251 -222.796 455.506 -238.085 521.341" stroke="url(#paint22_radial_201_56)" stroke-miterlimit="10"/>
<path d="M1323.75 137.232C1282.27 121.949 1239.93 108.376 1196.84 98.2226C1165.62 90.8482 1134.08 85.6113 1102.22 84.0082C1044.81 81.2294 985.255 91.5963 935.325 119.811C919.181 129.003 904.106 140.011 890.741 152.943C823.597 217.816 808.736 313.469 765.007 392.663C708.555 495.049 587.953 565.48 468.955 544.319C416.886 535.021 370.592 509.905 325.152 482.973C290.297 462.239 257.581 441.398 225.185 423.016C208.185 413.29 190.758 404.206 173.116 395.763C125.004 372.998 74.2184 355.791 18.4079 349.806C4.29494 348.31 -10.0319 347.455 -24.4656 347.669C-58.4651 348.203 -91.6093 355.364 -121.867 369.364C-182.382 397.366 -231.136 453.261 -246.104 519.31" stroke="url(#paint23_radial_201_56)" stroke-miterlimit="10"/>
<path d="M1326.64 140.759C1284.52 125.796 1241.64 112.009 1198.13 101.749C1166.59 94.375 1134.72 89.1382 1102.44 87.535C1044.38 84.7563 984.079 95.3369 933.828 123.979C917.47 133.278 902.395 144.393 888.816 157.538C821.031 223.266 806.704 320.202 762.227 400.144C704.492 503.599 580.683 572.961 460.829 550.624C408.761 541.113 362.145 516.318 316.919 488.637C282.492 467.689 249.776 445.673 217.38 425.688C200.38 415.107 182.953 405.061 165.098 395.656C116.557 370.113 65.1305 350.127 9.31997 343.714C-4.79303 342.111 -19.1199 341.256 -33.6605 341.577C-67.7669 342.325 -101.018 350.448 -131.275 365.196C-191.47 394.587 -239.475 451.017 -254.23 517.279" stroke="url(#paint24_radial_201_56)" stroke-miterlimit="10"/>
<path d="M1329.42 144.179C1286.65 129.537 1243.35 115.429 1199.3 105.169C1167.44 97.7951 1135.26 92.5582 1102.54 90.9551C1043.85 88.2832 982.689 99.0775 932.118 127.934C915.653 137.339 900.364 148.668 886.678 162.027C818.358 228.717 804.459 326.935 759.234 407.412C700.429 512.043 573.412 580.015 452.49 556.823C400.421 546.884 353.485 522.516 308.473 494.301C274.366 473.033 241.864 449.948 209.468 428.359C192.468 417.031 174.934 405.916 156.972 395.549C108.004 367.334 55.9357 344.569 0.125201 337.516C-13.9878 335.699 -28.4215 334.951 -42.8553 335.378C-77.0686 336.447 -110.32 345.318 -140.577 360.921C-200.557 391.808 -247.921 448.879 -262.248 515.356" stroke="url(#paint25_radial_201_56)" stroke-miterlimit="10"/>
<path d="M1332.2 147.706C1257.36 123.018 1181.45 98.1157 1102.76 94.5888C1024.07 91.0619 940.885 111.475 884.754 166.623C815.792 234.274 802.428 333.668 756.454 414.786C696.473 520.486 566.356 587.176 444.471 563.129C353.378 545.067 277.36 485.003 201.77 431.031C126.18 377.059 40.8604 325.653 -51.9433 329.179C-154.476 333.241 -249.098 413.076 -270.267 513.325" stroke="url(#paint26_radial_201_56)" stroke-miterlimit="10"/>
<path d="M-264.494 512.043C-243.752 419.168 -159.181 345.104 -64.8801 333.561C-58.6789 332.813 -52.4778 332.279 -46.2766 332.172C42.6781 329.286 124.79 376.525 198.242 427.291C200.808 429.001 203.267 430.818 205.833 432.528C281.209 485.217 357.334 543.464 447.571 559.923C568.387 581.725 695.725 513.859 756.668 409.977C764.472 396.618 771.529 382.724 778.051 368.616C810.34 298.827 831.082 223.48 888.71 169.615C917.47 142.789 952.86 124.621 991.029 113.613C1027.92 103.032 1067.47 99.1844 1105.86 100.894C1184.12 104.208 1259.71 127.506 1333.48 149.416" stroke="url(#paint27_radial_201_56)" stroke-miterlimit="10"/>
<path d="M-258.827 510.76C-237.23 419.061 -152.659 347.028 -59.1067 336.34C-53.0124 335.592 -46.8113 335.164 -40.6101 335.058C47.5961 332.599 129.067 379.197 202.305 428.787C204.871 430.497 207.33 432.207 209.896 433.917C285.058 485.431 361.183 541.861 450.672 556.609C570.526 576.168 695.083 507.019 756.881 405.061C764.9 391.915 771.957 378.342 778.692 364.555C812.05 296.476 834.61 224.121 892.665 172.608C921.64 146.958 956.922 129.644 994.878 119.277C1031.55 109.231 1070.79 105.704 1109.06 107.2C1186.9 110.299 1262.06 131.995 1334.77 151.233" stroke="url(#paint28_radial_201_56)" stroke-miterlimit="10"/>
<path d="M-253.053 509.478C-230.601 418.954 -145.923 349.058 -53.2262 339.119C-47.132 338.478 -41.0377 338.05 -34.9435 337.943C52.5144 336.019 133.343 381.869 206.367 430.283C208.933 431.993 211.393 433.596 213.959 435.306C289.014 485.644 365.139 540.258 453.666 553.296C572.557 570.61 694.335 500.179 756.988 400.144C765.114 387.213 772.384 373.96 779.334 360.494C813.761 294.018 838.138 224.656 896.515 175.493C925.596 151.019 960.878 134.667 998.62 124.834C1035.08 115.429 1074.1 112.009 1112.06 113.399C1189.47 116.284 1264.31 136.484 1335.94 152.836" stroke="url(#paint29_radial_201_56)" stroke-miterlimit="10"/>
<path d="M-247.387 508.195C-224.079 418.848 -139.401 350.982 -47.3459 341.791C-41.3585 341.149 -35.2643 340.829 -29.17 340.722C57.5394 339.333 137.727 384.434 210.537 431.779C213.103 433.383 215.562 435.092 218.021 436.696C292.863 485.751 368.988 538.654 456.766 549.983C574.588 564.946 693.587 493.339 757.309 395.121C765.541 382.51 773.026 369.471 780.189 356.433C815.685 291.666 841.88 225.19 900.577 178.486C929.872 155.187 965.048 139.69 1002.47 130.499C1038.71 121.628 1077.42 118.529 1115.16 119.811C1192.14 122.483 1266.55 141.079 1337.12 154.759" stroke="url(#paint30_radial_201_56)" stroke-miterlimit="10"/>
<path d="M-241.613 506.913C-217.45 418.741 -132.772 352.906 -41.4654 344.569C-35.4781 344.035 -29.4907 343.714 -23.5034 343.608C62.4576 342.753 142.004 387.106 214.6 433.276C217.059 434.879 219.625 436.482 222.084 438.085C296.712 485.965 372.944 536.944 459.867 546.67C576.727 559.388 692.838 486.499 757.523 390.205C765.862 377.808 773.56 365.089 780.938 352.371C817.503 289.315 845.515 225.831 904.533 181.371C933.935 159.248 969.111 144.606 1006.32 136.056C1042.35 127.72 1080.84 124.834 1118.37 126.01C1194.92 128.468 1269.01 145.461 1338.51 156.469" stroke="url(#paint31_radial_201_56)" stroke-miterlimit="10"/>
<path d="M-235.84 505.63C-210.821 418.634 -126.143 354.936 -35.585 347.348C-29.7046 346.814 -23.7173 346.6 -17.73 346.6C67.4826 346.279 146.494 389.884 218.77 434.986C221.229 436.589 223.795 438.085 226.254 439.688C300.668 486.286 377.006 535.555 463.074 543.571C578.972 554.044 692.304 479.873 757.843 385.503C766.29 373.319 774.095 360.921 781.686 348.524C819.321 287.071 849.15 226.579 908.489 184.471C938.105 163.523 973.067 149.843 1010.17 141.828C1045.98 134.026 1084.26 131.354 1121.47 132.529C1197.7 134.774 1271.26 150.164 1339.68 158.393" stroke="url(#paint32_radial_201_56)" stroke-miterlimit="10"/>
<path d="M-230.173 504.348C-204.3 418.527 -119.622 356.86 -29.7046 350.02C-23.8242 349.593 -17.9438 349.379 -11.9564 349.379C72.5077 349.593 150.878 392.556 222.939 436.375C225.399 437.871 227.965 439.368 230.424 440.971C304.731 486.393 380.962 533.845 466.282 540.151C581.11 548.273 691.662 472.926 758.164 380.373C766.718 368.403 774.736 356.326 782.541 344.249C821.245 284.506 852.893 226.9 912.552 187.249C942.382 167.478 977.237 154.653 1014.02 147.171C1049.62 139.904 1087.57 137.553 1124.67 138.514C1200.48 140.438 1273.61 154.332 1341.07 159.889" stroke="url(#paint33_radial_201_56)" stroke-miterlimit="10"/>
<path d="M-224.4 503.065C-197.671 418.42 -112.886 358.891 -23.8241 352.799C-17.9437 352.371 -12.1702 352.264 -6.28978 352.264C77.426 353.013 155.154 395.228 227.002 437.871C229.461 439.368 232.027 440.864 234.487 442.36C308.58 486.499 384.918 532.135 469.276 536.838C583.142 542.716 690.914 466.086 758.271 375.456C766.932 363.807 775.164 351.944 783.183 340.188C823.063 282.154 856.421 227.541 916.508 190.135C946.445 171.539 981.299 159.676 1017.86 152.729C1053.25 146.103 1091 143.858 1127.78 144.713C1203.15 146.423 1275.96 158.714 1342.25 161.493" stroke="url(#paint34_radial_201_56)" stroke-miterlimit="10"/>
<path d="M-218.626 501.783C-191.042 418.206 -106.257 360.814 -17.9438 355.471C-12.1703 355.15 -6.39676 354.936 -0.516344 355.043C82.451 356.326 159.538 397.793 231.172 439.368C233.631 440.757 236.09 442.253 238.656 443.643C312.536 486.606 388.981 530.425 472.483 533.418C585.387 537.051 690.272 459.139 758.592 370.433C767.359 358.998 775.806 347.455 784.038 336.126C824.987 279.696 860.163 228.076 920.571 193.127C950.721 175.707 985.469 164.699 1021.82 158.393C1057 152.301 1094.42 150.378 1130.98 151.126C1205.93 152.622 1278.31 163.416 1343.64 163.416" stroke="url(#paint35_radial_201_56)" stroke-miterlimit="10"/>
<path d="M-212.96 500.393C-184.52 418.099 -99.735 362.738 -12.0633 358.142C-6.28981 357.822 -0.623218 357.715 5.15028 357.929C87.3692 359.639 163.815 400.465 235.235 440.864C237.694 442.253 240.153 443.643 242.612 445.032C316.278 486.713 392.723 528.929 475.477 530.104C587.312 531.708 689.417 452.299 758.699 365.517C767.68 354.295 776.126 343.073 784.68 332.065C826.698 277.345 863.584 228.61 924.42 196.013C954.677 179.768 989.318 169.722 1025.46 163.951C1060.42 158.393 1097.62 156.683 1133.98 157.324C1208.5 158.607 1280.56 167.798 1344.71 165.019" stroke="url(#paint36_radial_201_56)" stroke-miterlimit="10"/>
<path d="M-207.186 499.111C-177.891 417.993 -93.1062 364.662 -6.18295 360.921C-0.516364 360.708 5.25714 360.601 10.9237 360.814C92.3942 363.059 168.198 403.137 239.405 442.467C241.864 443.856 244.323 445.139 246.782 446.528C320.234 487.034 396.786 527.433 478.684 526.898C589.557 526.15 688.882 445.566 759.02 360.601C768.108 349.699 776.768 338.691 785.428 328.004C828.515 274.994 867.219 229.251 928.376 199.006C958.847 183.936 993.381 174.745 1029.3 169.615C1064.05 164.592 1101.05 163.203 1137.08 163.737C1211.17 164.806 1282.8 172.394 1345.99 166.943" stroke="url(#paint37_radial_201_56)" stroke-miterlimit="10"/>
<path d="M-201.413 497.828C-171.262 417.886 -86.4773 366.693 -0.302464 363.7C5.36412 363.486 11.0307 363.486 16.6973 363.7C97.4194 366.479 172.582 405.916 243.574 443.963C246.034 445.246 248.493 446.635 250.952 447.918C324.297 487.248 400.849 525.829 481.785 523.585C591.695 520.593 688.134 438.726 759.234 355.684C768.428 344.997 777.302 334.309 786.176 323.943C830.333 272.536 870.855 229.786 932.332 201.891C963.017 187.998 997.444 179.768 1033.15 175.173C1067.79 170.791 1104.36 169.508 1140.28 169.936C1213.95 170.791 1285.26 176.776 1347.28 168.546" stroke="url(#paint38_radial_201_56)" stroke-miterlimit="10"/>
<path d="M-195.746 496.546C-164.74 417.779 -79.8485 368.616 5.57787 366.372C11.1375 366.265 16.8041 366.265 22.3638 366.479C102.337 369.792 176.965 408.481 247.637 445.353C250.096 446.635 252.555 447.918 255.014 449.2C328.145 487.248 404.698 524.013 484.885 520.165C593.726 514.928 687.385 431.779 759.447 350.661C768.749 340.188 777.837 329.821 786.925 319.774C832.151 270.078 874.49 230.213 936.287 204.777C967.079 192.059 1001.51 184.684 1036.9 180.73C1071.32 176.883 1107.67 175.921 1143.28 176.241C1216.52 176.883 1287.4 181.264 1348.45 170.363" stroke="url(#paint39_radial_201_56)" stroke-miterlimit="10"/>
<path d="M-189.973 495.263C-158.111 417.672 -73.2197 370.54 11.4583 369.151C17.018 369.044 22.5777 369.151 28.1373 369.364C107.363 373.212 181.349 411.153 251.807 446.956C254.266 448.238 256.725 449.414 259.184 450.696C332.101 487.568 408.761 522.516 488.093 516.959C595.972 509.478 686.851 424.939 759.875 345.852C769.284 335.592 778.479 325.546 787.887 315.927C834.182 267.94 878.339 230.961 940.564 207.876C971.57 196.334 1005.89 189.921 1041.07 186.394C1075.28 183.081 1111.31 182.333 1146.7 182.547C1219.51 182.974 1290.07 185.753 1350.06 172.073" stroke="url(#paint40_radial_201_56)" stroke-miterlimit="10"/>
<path d="M-184.199 493.981C-151.483 417.565 -66.5909 372.571 17.3387 371.823C22.7914 371.823 28.3511 371.929 33.8039 372.25C112.281 376.632 185.626 413.824 255.87 448.452C258.329 449.628 260.788 450.803 263.14 452.086C335.843 487.675 412.61 520.913 491.086 513.646C598.003 503.813 685.996 418.099 759.982 340.829C769.497 330.889 778.906 321.057 788.422 311.759C835.786 265.375 881.76 231.496 944.306 210.762C975.526 200.395 1009.63 194.838 1044.7 191.952C1078.7 189.173 1114.52 188.639 1149.69 188.746C1222.08 188.959 1292.21 190.242 1351.12 173.783" stroke="url(#paint41_radial_201_56)" stroke-miterlimit="10"/>
<path d="M-178.533 492.698C-144.961 417.458 -60.0689 374.494 23.2192 374.601C28.6719 374.601 34.1246 374.815 39.5774 375.136C117.306 380.052 190.009 416.496 260.04 450.055C262.499 451.231 264.851 452.406 267.31 453.475C339.906 487.889 416.566 519.203 494.294 510.333C600.141 498.256 685.354 411.259 760.303 335.913C769.925 326.187 779.548 316.675 789.277 307.698C837.71 263.024 885.502 232.03 948.369 213.648C979.696 204.456 1013.8 199.754 1048.55 197.509C1082.34 195.372 1117.94 195.051 1152.79 195.051C1224.75 195.051 1294.46 194.731 1352.41 175.6" stroke="url(#paint42_radial_201_56)" stroke-miterlimit="10"/>
<path d="M-172.759 491.416C-138.225 417.351 -53.3331 376.418 29.0996 377.273C34.4455 377.38 39.8982 377.594 45.2441 377.914C122.224 383.365 194.286 419.061 264.102 451.444C266.562 452.513 268.914 453.689 271.373 454.757C343.755 487.889 420.522 517.493 497.288 506.912C602.173 492.484 684.606 404.312 760.41 330.889C770.139 321.377 779.975 312.186 789.919 303.529C839.421 260.459 889.03 232.457 952.218 216.533C983.759 208.517 1017.76 204.777 1052.29 203.067C1085.86 201.464 1121.15 201.357 1155.79 201.25C1227.42 201.036 1296.7 199.112 1353.48 177.203" stroke="url(#paint43_radial_201_56)" stroke-miterlimit="10"/>
<path d="M-166.986 490.133C-131.596 417.244 -46.7044 378.449 34.98 380.052C40.3258 380.159 45.6716 380.373 51.0175 380.8C127.356 386.785 198.669 421.84 268.272 452.941C270.731 454.009 273.083 455.078 275.542 456.147C347.711 488.103 424.584 515.89 500.495 503.599C604.418 486.927 683.964 397.473 760.73 325.973C770.674 316.782 780.51 307.804 790.774 299.468C841.346 258.108 892.772 233.099 956.281 219.419C987.928 212.579 1021.93 209.693 1056.25 208.624C1089.61 207.556 1124.67 207.769 1159.1 207.556C1230.31 207.021 1299.16 203.601 1354.97 179.02" stroke="url(#paint44_radial_201_56)" stroke-miterlimit="10"/>
<path d="M-161.319 488.851C-125.074 417.138 -40.1824 380.373 40.8605 382.831C46.2063 382.938 51.4452 383.258 56.791 383.793C132.381 390.205 203.053 424.619 272.442 454.651C274.901 455.719 277.253 456.681 279.712 457.75C351.667 488.423 428.54 514.394 503.703 500.5C606.557 481.476 683.323 390.846 761.051 321.164C771.101 312.186 781.151 303.529 791.522 295.621C843.163 255.97 896.408 233.847 960.237 222.518C992.098 216.854 1025.88 214.93 1059.99 214.396C1093.13 213.861 1127.88 214.289 1162.1 213.968C1232.87 213.22 1301.41 208.197 1356.04 180.837" stroke="url(#paint45_radial_201_56)" stroke-miterlimit="10"/>
<path d="M-155.546 487.568C-118.445 417.031 -33.5536 382.403 46.7408 385.503C51.9797 385.716 57.2186 386.037 62.4576 386.571C137.299 393.518 207.33 427.184 276.505 456.04C278.857 457.002 281.316 458.071 283.668 459.033C355.409 488.53 432.389 512.47 506.696 497.187C608.588 475.705 682.574 384.006 761.158 316.248C771.315 307.484 781.579 299.148 792.164 291.559C844.874 253.512 899.936 234.381 964.193 225.511C996.268 221.022 1029.95 219.953 1063.84 220.06C1096.77 220.06 1131.3 220.808 1165.3 220.381C1235.65 219.419 1303.76 212.793 1357.43 182.761" stroke="url(#paint46_radial_201_56)" stroke-miterlimit="10"/>
<path d="M-149.879 486.286C-111.923 416.924 -27.0317 384.327 52.5143 388.281C57.7532 388.495 62.8853 388.923 68.1242 389.457C142.217 396.938 211.713 429.856 280.568 457.536C282.92 458.498 285.379 459.46 287.731 460.422C359.365 488.744 436.238 510.867 509.69 493.874C610.512 470.148 681.719 377.166 761.265 311.331C771.529 302.888 782.007 294.766 792.805 287.498C846.584 251.161 903.464 235.023 968.042 228.396C1000.22 225.083 1033.9 224.976 1067.58 225.511C1100.3 226.152 1134.62 227.007 1168.3 226.473C1238.22 225.297 1306.01 217.174 1358.5 184.257" stroke="url(#paint47_radial_201_56)" stroke-miterlimit="10"/>
<path d="M-144.105 485.003C-105.295 416.817 -20.296 386.358 58.5016 391.06C63.6336 391.381 68.7656 391.808 73.8976 392.342C147.242 400.358 216.097 432.527 284.737 459.139C287.089 460.101 289.549 460.956 291.901 461.918C363.321 488.958 440.301 509.371 512.897 490.667C612.758 464.697 681.184 370.433 761.586 306.415C771.956 298.186 782.541 290.384 793.661 283.437C848.509 248.809 907.206 235.557 972.105 231.389C1004.5 229.358 1038.07 229.999 1071.43 231.175C1103.93 232.351 1137.93 233.526 1171.4 232.778C1240.89 231.389 1308.25 221.663 1359.78 186.074" stroke="url(#paint48_radial_201_56)" stroke-miterlimit="10"/>
<path d="M-138.332 483.614C-98.6658 416.603 -13.6671 388.174 64.3821 393.625C69.5141 393.946 74.5392 394.48 79.6712 395.014C152.268 403.564 220.48 434.986 288.907 460.422C291.259 461.277 293.611 462.132 296.071 463.094C367.277 488.958 444.257 507.447 516.105 487.141C614.896 458.819 680.543 363.379 761.906 301.285C772.384 293.269 783.183 285.895 794.409 279.162C850.433 246.138 910.841 235.878 976.06 234.061C1008.67 233.206 1042.03 234.809 1075.28 236.519C1107.57 238.229 1141.35 239.618 1174.6 238.87C1243.67 237.267 1310.71 225.938 1361.07 187.57" stroke="url(#paint49_radial_201_56)" stroke-miterlimit="10"/>
<path d="M-132.665 482.331C-92.1439 416.496 -7.14512 390.098 70.1556 396.404C75.1807 396.831 80.2058 397.366 85.3378 398.007C157.186 407.091 224.757 437.871 292.97 462.132C295.322 462.987 297.674 463.842 300.133 464.59C371.126 489.171 448.213 505.951 519.206 483.934C617.034 453.368 679.794 356.646 762.227 296.476C772.812 288.674 783.824 281.62 795.264 275.314C852.358 244 914.584 236.733 980.123 237.267C1012.84 237.588 1046.2 240.046 1079.24 242.397C1111.31 244.641 1144.78 246.244 1177.81 245.389C1246.45 243.573 1313.06 230.641 1362.46 189.601" stroke="url(#paint50_radial_201_56)" stroke-miterlimit="10"/>
<path d="M-126.892 481.049C-85.5151 416.389 -0.51635 392.129 76.1429 399.076C81.168 399.503 86.1931 400.144 91.1112 400.786C162.211 410.404 229.141 440.436 297.247 463.521C299.599 464.269 301.951 465.124 304.303 465.873C375.189 489.278 452.276 504.241 522.306 480.514C619.173 447.704 679.153 349.699 762.441 291.453C773.133 283.971 784.359 277.131 796.013 271.146C854.175 241.542 918.219 237.16 984.079 240.046C1017.01 241.542 1050.26 244.962 1082.98 247.848C1114.84 250.733 1148.09 252.55 1180.91 251.588C1249.13 249.558 1315.41 235.023 1363.63 191.204" stroke="url(#paint51_radial_201_56)" stroke-miterlimit="10"/>
<path d="M-121.118 479.766C-78.8862 416.283 6.21946 394.053 82.0234 401.854C157.827 409.656 228.82 441.612 301.309 465.018C373.906 488.53 453.88 503.493 525.407 477.201C633.606 437.658 692.518 316.354 796.761 267.085C885.502 225.19 989.211 242.931 1086.83 253.405C1184.44 263.879 1294.99 261.741 1364.92 192.914" stroke="url(#paint52_radial_201_56)" stroke-miterlimit="10"/>
<defs>
<radialGradient id="paint0_radial_201_56" cx="0" cy="0" r="1" gradientUnits="userSpaceOnUse" gradientTransform="translate(598.965 283.135) rotate(90) scale(281.704 660.21)">
<stop stop-color="white"/>
<stop offset="1" stop-color="#999999"/>
</radialGradient>
<radialGradient id="paint1_radial_201_56" cx="0" cy="0" r="1" gradientUnits="userSpaceOnUse" gradientTransform="translate(596.506 283.998) rotate(90) scale(278.81 665.663)">
<stop stop-color="white"/>
<stop offset="1" stop-color="#999999"/>
</radialGradient>
<radialGradient id="paint2_radial_201_56" cx="0" cy="0" r="1" gradientUnits="userSpaceOnUse" gradientTransform="translate(593.833 284.83) rotate(90) scale(276.055 671.116)">
<stop stop-color="white"/>
<stop offset="1" stop-color="#999999"/>
</radialGradient>
<radialGradient id="paint3_radial_201_56" cx="0" cy="0" r="1" gradientUnits="userSpaceOnUse" gradientTransform="translate(591.214 285.642) rotate(90) scale(273.319 676.515)">
<stop stop-color="white"/>
<stop offset="1" stop-color="#999999"/>
</radialGradient>
<radialGradient id="paint4_radial_201_56" cx="0" cy="0" r="1" gradientUnits="userSpaceOnUse" gradientTransform="translate(588.648 286.369) rotate(90) scale(270.561 681.861)">
<stop stop-color="white"/>
<stop offset="1" stop-color="#999999"/>
</radialGradient>
<radialGradient id="paint5_radial_201_56" cx="0" cy="0" r="1" gradientUnits="userSpaceOnUse" gradientTransform="translate(585.975 287.233) rotate(90) scale(267.773 687.421)">
<stop stop-color="white"/>
<stop offset="1" stop-color="#999999"/>
</radialGradient>
<radialGradient id="paint6_radial_201_56" cx="0" cy="0" r="1" gradientUnits="userSpaceOnUse" gradientTransform="translate(583.302 287.955) rotate(90) scale(264.914 692.873)">
<stop stop-color="white"/>
<stop offset="1" stop-color="#999999"/>
</radialGradient>
<radialGradient id="paint7_radial_201_56" cx="0" cy="0" r="1" gradientUnits="userSpaceOnUse" gradientTransform="translate(580.629 288.818) rotate(90) scale(262.234 698.326)">
<stop stop-color="white"/>
<stop offset="1" stop-color="#999999"/>
</radialGradient>
<radialGradient id="paint8_radial_201_56" cx="0" cy="0" r="1" gradientUnits="userSpaceOnUse" gradientTransform="translate(578.063 289.489) rotate(90) scale(259.426 703.672)">
<stop stop-color="white"/>
<stop offset="1" stop-color="#999999"/>
</radialGradient>
<radialGradient id="paint9_radial_201_56" cx="0" cy="0" r="1" gradientUnits="userSpaceOnUse" gradientTransform="translate(575.444 290.405) rotate(90) scale(256.693 709.071)">
<stop stop-color="white"/>
<stop offset="1" stop-color="#999999"/>
</radialGradient>
<radialGradient id="paint10_radial_201_56" cx="0" cy="0" r="1" gradientUnits="userSpaceOnUse" gradientTransform="translate(572.985 291.284) rotate(90) scale(253.89 714.417)">
<stop stop-color="white"/>
<stop offset="1" stop-color="#999999"/>
</radialGradient>
<radialGradient id="paint11_radial_201_56" cx="0" cy="0" r="1" gradientUnits="userSpaceOnUse" gradientTransform="translate(570.258 291.988) rotate(90) scale(251.048 719.923)">
<stop stop-color="white"/>
<stop offset="1" stop-color="#999999"/>
</radialGradient>
<radialGradient id="paint12_radial_201_56" cx="0" cy="0" r="1" gradientUnits="userSpaceOnUse" gradientTransform="translate(567.532 292.706) rotate(90) scale(248.3 725.43)">
<stop stop-color="white"/>
<stop offset="1" stop-color="#999999"/>
</radialGradient>
<radialGradient id="paint13_radial_201_56" cx="0" cy="0" r="1" gradientUnits="userSpaceOnUse" gradientTransform="translate(565.019 293.621) rotate(90) scale(245.675 730.722)">
<stop stop-color="white"/>
<stop offset="1" stop-color="#999999"/>
</radialGradient>
<radialGradient id="paint14_radial_201_56" cx="0" cy="0" r="1" gradientUnits="userSpaceOnUse" gradientTransform="translate(562.293 294.268) rotate(90) scale(242.784 736.228)">
<stop stop-color="white"/>
<stop offset="1" stop-color="#999999"/>
</radialGradient>
<radialGradient id="paint15_radial_201_56" cx="0" cy="0" r="1" gradientUnits="userSpaceOnUse" gradientTransform="translate(559.834 295.146) rotate(90) scale(239.981 741.574)">
<stop stop-color="white"/>
<stop offset="1" stop-color="#999999"/>
</radialGradient>
<radialGradient id="paint16_radial_201_56" cx="0" cy="0" r="1" gradientUnits="userSpaceOnUse" gradientTransform="translate(557.161 295.9) rotate(90) scale(237.197 747.027)">
<stop stop-color="white"/>
<stop offset="1" stop-color="#999999"/>
</radialGradient>
<radialGradient id="paint17_radial_201_56" cx="0" cy="0" r="1" gradientUnits="userSpaceOnUse" gradientTransform="translate(554.435 296.668) rotate(90) scale(234.505 752.533)">
<stop stop-color="white"/>
<stop offset="1" stop-color="#999999"/>
</radialGradient>
<radialGradient id="paint18_radial_201_56" cx="0" cy="0" r="1" gradientUnits="userSpaceOnUse" gradientTransform="translate(551.869 297.583) rotate(90) scale(231.773 757.879)">
<stop stop-color="white"/>
<stop offset="1" stop-color="#999999"/>
</radialGradient>
<radialGradient id="paint19_radial_201_56" cx="0" cy="0" r="1" gradientUnits="userSpaceOnUse" gradientTransform="translate(549.303 298.297) rotate(90) scale(228.922 763.332)">
<stop stop-color="white"/>
<stop offset="1" stop-color="#999999"/>
</radialGradient>
<radialGradient id="paint20_radial_201_56" cx="0" cy="0" r="1" gradientUnits="userSpaceOnUse" gradientTransform="translate(546.737 300.638) rotate(90) scale(227.727 768.677)">
<stop stop-color="white"/>
<stop offset="1" stop-color="#999999"/>
</radialGradient>
<radialGradient id="paint21_radial_201_56" cx="0" cy="0" r="1" gradientUnits="userSpaceOnUse" gradientTransform="translate(544.064 305.674) rotate(90) scale(229.2 774.13)">
<stop stop-color="white"/>
<stop offset="1" stop-color="#999999"/>
</radialGradient>
<radialGradient id="paint22_radial_201_56" cx="0" cy="0" r="1" gradientUnits="userSpaceOnUse" gradientTransform="translate(541.444 310.76) rotate(90) scale(230.748 779.529)">
<stop stop-color="white"/>
<stop offset="1" stop-color="#999999"/>
</radialGradient>
<radialGradient id="paint23_radial_201_56" cx="0" cy="0" r="1" gradientUnits="userSpaceOnUse" gradientTransform="translate(538.825 315.828) rotate(90) scale(232.255 784.929)">
<stop stop-color="white"/>
<stop offset="1" stop-color="#999999"/>
</radialGradient>
<radialGradient id="paint24_radial_201_56" cx="0" cy="0" r="1" gradientUnits="userSpaceOnUse" gradientTransform="translate(536.205 320.961) rotate(90) scale(233.855 790.435)">
<stop stop-color="white"/>
<stop offset="1" stop-color="#999999"/>
</radialGradient>
<radialGradient id="paint25_radial_201_56" cx="0" cy="0" r="1" gradientUnits="userSpaceOnUse" gradientTransform="translate(533.586 325.965) rotate(90) scale(235.403 795.834)">
<stop stop-color="white"/>
<stop offset="1" stop-color="#999999"/>
</radialGradient>
<radialGradient id="paint26_radial_201_56" cx="0" cy="0" r="1" gradientUnits="userSpaceOnUse" gradientTransform="translate(530.966 331.12) rotate(90) scale(236.916 801.234)">
<stop stop-color="white"/>
<stop offset="1" stop-color="#999999"/>
</radialGradient>
<radialGradient id="paint27_radial_201_56" cx="0" cy="0" r="1" gradientUnits="userSpaceOnUse" gradientTransform="translate(534.495 332.252) rotate(90) scale(231.748 798.988)">
<stop stop-color="white"/>
<stop offset="1" stop-color="#999999"/>
</radialGradient>
<radialGradient id="paint28_radial_201_56" cx="0" cy="0" r="1" gradientUnits="userSpaceOnUse" gradientTransform="translate(537.969 333.397) rotate(90) scale(226.526 796.796)">
<stop stop-color="white"/>
<stop offset="1" stop-color="#999999"/>
</radialGradient>
<radialGradient id="paint29_radial_201_56" cx="0" cy="0" r="1" gradientUnits="userSpaceOnUse" gradientTransform="translate(541.444 334.509) rotate(90) scale(221.408 794.498)">
<stop stop-color="white"/>
<stop offset="1" stop-color="#999999"/>
</radialGradient>
<radialGradient id="paint30_radial_201_56" cx="0" cy="0" r="1" gradientUnits="userSpaceOnUse" gradientTransform="translate(544.866 335.749) rotate(90) scale(216.215 792.253)">
<stop stop-color="white"/>
<stop offset="1" stop-color="#999999"/>
</radialGradient>
<radialGradient id="paint31_radial_201_56" cx="0" cy="0" r="1" gradientUnits="userSpaceOnUse" gradientTransform="translate(548.447 336.936) rotate(90) scale(211.177 790.061)">
<stop stop-color="white"/>
<stop offset="1" stop-color="#999999"/>
</radialGradient>
<radialGradient id="paint32_radial_201_56" cx="0" cy="0" r="1" gradientUnits="userSpaceOnUse" gradientTransform="translate(551.922 338.411) rotate(90) scale(206.147 787.762)">
<stop stop-color="white"/>
<stop offset="1" stop-color="#999999"/>
</radialGradient>
<radialGradient id="paint33_radial_201_56" cx="0" cy="0" r="1" gradientUnits="userSpaceOnUse" gradientTransform="translate(555.45 339.53) rotate(90) scale(201.221 785.624)">
<stop stop-color="white"/>
<stop offset="1" stop-color="#999999"/>
</radialGradient>
<radialGradient id="paint34_radial_201_56" cx="0" cy="0" r="1" gradientUnits="userSpaceOnUse" gradientTransform="translate(558.925 340.847) rotate(90) scale(196.308 783.325)">
<stop stop-color="white"/>
<stop offset="1" stop-color="#999999"/>
</radialGradient>
<radialGradient id="paint35_radial_201_56" cx="0" cy="0" r="1" gradientUnits="userSpaceOnUse" gradientTransform="translate(562.507 342.256) rotate(90) scale(191.284 781.133)">
<stop stop-color="white"/>
<stop offset="1" stop-color="#999999"/>
</radialGradient>
<radialGradient id="paint36_radial_201_56" cx="0" cy="0" r="1" gradientUnits="userSpaceOnUse" gradientTransform="translate(565.875 343.663) rotate(90) scale(186.466 778.834)">
<stop stop-color="white"/>
<stop offset="1" stop-color="#999999"/>
</radialGradient>
<radialGradient id="paint37_radial_201_56" cx="0" cy="0" r="1" gradientUnits="userSpaceOnUse" gradientTransform="translate(569.403 345.267) rotate(90) scale(181.637 776.589)">
<stop stop-color="white"/>
<stop offset="1" stop-color="#999999"/>
</radialGradient>
<radialGradient id="paint38_radial_201_56" cx="0" cy="0" r="1" gradientUnits="userSpaceOnUse" gradientTransform="translate(572.931 346.112) rotate(90) scale(177.566 774.344)">
<stop stop-color="white"/>
<stop offset="1" stop-color="#999999"/>
</radialGradient>
<radialGradient id="paint39_radial_201_56" cx="0" cy="0" r="1" gradientUnits="userSpaceOnUse" gradientTransform="translate(576.353 345.403) rotate(90) scale(175.04 772.099)">
<stop stop-color="white"/>
<stop offset="1" stop-color="#999999"/>
</radialGradient>
<radialGradient id="paint40_radial_201_56" cx="0" cy="0" r="1" gradientUnits="userSpaceOnUse" gradientTransform="translate(580.041 344.808) rotate(90) scale(172.735 770.014)">
<stop stop-color="white"/>
<stop offset="1" stop-color="#999999"/>
</radialGradient>
<radialGradient id="paint41_radial_201_56" cx="0" cy="0" r="1" gradientUnits="userSpaceOnUse" gradientTransform="translate(583.462 344.218) rotate(90) scale(170.435 767.662)">
<stop stop-color="white"/>
<stop offset="1" stop-color="#999999"/>
</radialGradient>
<radialGradient id="paint42_radial_201_56" cx="0" cy="0" r="1" gradientUnits="userSpaceOnUse" gradientTransform="translate(586.937 343.728) rotate(90) scale(168.128 765.47)">
<stop stop-color="white"/>
<stop offset="1" stop-color="#999999"/>
</radialGradient>
<radialGradient id="paint43_radial_201_56" cx="0" cy="0" r="1" gradientUnits="userSpaceOnUse" gradientTransform="translate(590.359 343.149) rotate(90) scale(165.945 763.118)">
<stop stop-color="white"/>
<stop offset="1" stop-color="#999999"/>
</radialGradient>
<radialGradient id="paint44_radial_201_56" cx="0" cy="0" r="1" gradientUnits="userSpaceOnUse" gradientTransform="translate(593.994 342.796) rotate(90) scale(163.776 760.979)">
<stop stop-color="white"/>
<stop offset="1" stop-color="#999999"/>
</radialGradient>
<radialGradient id="paint45_radial_201_56" cx="0" cy="0" r="1" gradientUnits="userSpaceOnUse" gradientTransform="translate(597.362 342.59) rotate(90) scale(161.753 758.681)">
<stop stop-color="white"/>
<stop offset="1" stop-color="#999999"/>
</radialGradient>
<radialGradient id="paint46_radial_201_56" cx="0" cy="0" r="1" gradientUnits="userSpaceOnUse" gradientTransform="translate(600.943 342.35) rotate(90) scale(159.59 756.489)">
<stop stop-color="white"/>
<stop offset="1" stop-color="#999999"/>
</radialGradient>
<radialGradient id="paint47_radial_201_56" cx="0" cy="0" r="1" gradientUnits="userSpaceOnUse" gradientTransform="translate(604.311 342.031) rotate(90) scale(157.774 754.19)">
<stop stop-color="white"/>
<stop offset="1" stop-color="#999999"/>
</radialGradient>
<radialGradient id="paint48_radial_201_56" cx="0" cy="0" r="1" gradientUnits="userSpaceOnUse" gradientTransform="translate(607.839 341.988) rotate(90) scale(155.914 751.945)">
<stop stop-color="white"/>
<stop offset="1" stop-color="#999999"/>
</radialGradient>
<radialGradient id="paint49_radial_201_56" cx="0" cy="0" r="1" gradientUnits="userSpaceOnUse" gradientTransform="translate(611.368 341.68) rotate(90) scale(154.11 749.7)">
<stop stop-color="white"/>
<stop offset="1" stop-color="#999999"/>
</radialGradient>
<radialGradient id="paint50_radial_201_56" cx="0" cy="0" r="1" gradientUnits="userSpaceOnUse" gradientTransform="translate(614.896 341.886) rotate(90) scale(152.285 747.561)">
<stop stop-color="white"/>
<stop offset="1" stop-color="#999999"/>
</radialGradient>
<radialGradient id="paint51_radial_201_56" cx="0" cy="0" r="1" gradientUnits="userSpaceOnUse" gradientTransform="translate(618.371 341.856) rotate(90) scale(150.653 745.263)">
<stop stop-color="white"/>
<stop offset="1" stop-color="#999999"/>
</radialGradient>
<radialGradient id="paint52_radial_201_56" cx="0" cy="0" r="1" gradientUnits="userSpaceOnUse" gradientTransform="translate(621.899 342.007) rotate(90) scale(149.093 743.017)">
<stop stop-color="white"/>
<stop offset="1" stop-color="#999999"/>
</radialGradient>
</defs>
</svg>
